PathFileType	3	(X/Y/Z)	D:\Vicon Database\Healthy Subjects\S0040\Jan. 30, 2020\Force Plate Walk 5.trc
DataRate	CameraRate	NumFrames	NumMarkers	Units	OrigDataRate	OrigDataStartFrame	OrigNumFrames
100.0	100.0	4	53	mm	100.0	309	326	
Frame#	Time	right_foot_cluster2			right_foot_cluster3			sternum_cluster1			sternum_cluster2			sternum_cluster3			left_asis			right_asis			left_psis			right_psis			sacrum_cluster1			sacrum_cluster2			sacrum_cluster3			left_lat_femoral_epicondyle			left_anterior_thigh15			left_anterior_thigh25			left_anterior_thigh50			left_lateral_thigh25			left_lateral_thigh50			left_thigh_cluster1			left_thigh_cluster2			left_thigh_cluster3			left_fibular_head			left_tibial_tuberosity			left_anterior_shank30			left_lateral_malleolus			left_shank_cluster1			left_shank_cluster2			left_shank_cluster3			left_heel			left_metatarsal2			left_foot_cluster1			left_foot_cluster2			left_foot_cluster3			right_lat_femoral_epicondyle			right_anterior_thigh15			right_anterior_thigh25			right_anterior_thigh50			right_lateral_thigh25			right_lateral_thigh50			right_thigh_cluster1			right_thigh_cluster2			right_thigh_cluster3			right_fibular_head			right_tibial_tuberosity			right_lateral_distal_shank			right_anterior_shank30			right_lateral_malleolus			right_shank_cluster1			right_shank_cluster2			right_shank_cluster3			right_heel			right_metatarsal2			right_foot_cluster1			
		X1	Y1	Z1	X2	Y2	Z2	X3	Y3	Z3	X4	Y4	Z4	X5	Y5	Z5	X6	Y6	Z6	X7	Y7	Z7	X8	Y8	Z8	X9	Y9	Z9	X10	Y10	Z10	X11	Y11	Z11	X12	Y12	Z12	X13	Y13	Z13	X14	Y14	Z14	X15	Y15	Z15	X16	Y16	Z16	X17	Y17	Z17	X18	Y18	Z18	X19	Y19	Z19	X20	Y20	Z20	X21	Y21	Z21	X22	Y22	Z22	X23	Y23	Z23	X24	Y24	Z24	X25	Y25	Z25	X26	Y26	Z26	X27	Y27	Z27	X28	Y28	Z28	X29	Y29	Z29	X30	Y30	Z30	X31	Y31	Z31	X32	Y32	Z32	X33	Y33	Z33	X34	Y34	Z34	X35	Y35	Z35	X36	Y36	Z36	X37	Y37	Z37	X38	Y38	Z38	X39	Y39	Z39	X40	Y40	Z40	X41	Y41	Z41	X42	Y42	Z42	X43	Y43	Z43	X44	Y44	Z44	X45	Y45	Z45	X46	Y46	Z46	X47	Y47	Z47	X48	Y48	Z48	X49	Y49	Z49	X50	Y50	Z50	X51	Y51	Z51	X52	Y52	Z52	X53	Y53	Z53	
309	3.08	2322.8823	169.47577	-231.33733	2324.8071	171.14247	-268.63586	2646.6428	1423.5151	-140.83806	2634.4277	1395.8394	-133.4523	2638.8159	1398.2823	-171.35204	2667.0024	1041.2	-18.132261	2680.168	1056.0449	-267.83035	2835.3604	1065.9932	-64.392456	2845.292	1065.8936	-181.61899	2848.8169	1122.2216	-128.7701	2855.9822	1096.8986	-139.87755	2854.9541	1091.7201	-100.70449	2885.03	548.71936	2.6420195	2767.3687	589.62469	-47.891853	2715.3752	664.80615	-30.190105	2670.5605	798.89209	-9.3443356	2830.2703	691.94281	25.335371	2771.7419	826.25732	52.861988	2791.6516	784.85486	57.642551	2803.1362	757.96912	54.258568	2765.1599	755.52039	57.818272	2911.8081	471.79529	9.213088	2866.6399	441.40796	-46.58992	2991.5962	221.24225	-58.013977	3085.6743	137.54681	-27.726795	2890.8264	391.68454	-75.692741	2894.8933	364.92007	-67.131493	2912.3093	371.53043	-102.31658	3170.4956	121.17274	-59.094017	2958.8357	63.68903	-66.249794	3003.9502	126.01192	-59.861233	2985.1582	103.58656	-50.217525	2981.0198	107.59806	-88.263626	2564.9583	538.40601	-287.96124	2521.3877	646.99371	-230.34341	2536.4702	724.60382	-230.46895	2585.1216	842.4162	-237.26332	2625.6262	684.56274	-315.505	2682.7773	822.64569	-337.69904	2669.603	770.633	-344.51068	2649.573	749.83887	-341.23441	2684.6868	734.88385	-334.11743	2549.8711	473.63007	-292.20117	2494.0896	483.8342	-247.16478	2466.4985	216.34337	-287.07813	2427.5378	245.38383	-241.65187	2422.2031	115.21651	-276.36765	2482.0901	418.62921	-195.33643	2477.0784	390.28342	-188.51855	2455.0493	397.2728	-217.46556	2472.5171	51.008911	-237.46768	2280.7712	154.64331	-241.47704	2350.8833	171.40854	-239.82378
310	3.09	2312.5625	160.5217	-230.64029	2314.4993	162.4223	-268.10565	2633.1548	1422.1661	-142.26263	2620.5264	1394.7017	-134.90627	2624.8845	1397.172	-172.79915	2652.0713	1039.6311	-19.863571	2664.5879	1054.7716	-269.5137	2820.2131	1063.9834	-66.200455	2829.9771	1063.9532	-183.40952	2833.6238	1120.1997	-130.56812	2840.7847	1094.9617	-141.66409	2839.8018	1089.7188	-102.52982	2870.0076	547.47583	1.4447453	2751.5574	587.84003	-48.255898	2700.0681	663.3139	-30.719376	2655.3816	797.57886	-10.214877	2815.4204	690.51233	23.800377	2757.1062	824.94495	51.258278	2777.0283	783.79559	56.156521	2788.5183	756.76642	52.585217	2750.9417	754.22388	56.475403	2897.5068	470.92676	8.4323311	2852.7495	439.42065	-47.722897	2984.959	222.48735	-57.992069	3080.8379	141.38666	-27.305304	2878.8647	390.01166	-76.219276	2885.0557	363.61234	-67.639046	2900.8826	370.20538	-102.76072	3166.1313	128.23912	-58.944241	2957.2275	62.463696	-66.154335	2999.4907	126.88951	-59.351444	2981.6836	103.58811	-49.842045	2977.1389	107.59538	-88.009201	2548.3308	536.93878	-288.96429	2504.7007	647.13812	-232.50787	2520.427	724.25232	-232.03825	2569.5906	841.47632	-238.31075	2608.595	683.97864	-317.78409	2666.6814	821.37982	-339.56116	2653.2778	769.23218	-346.30609	2632.9434	748.92761	-342.89194	2667.9614	733.4704	-335.63513	2534.9646	471.68149	-292.85364	2478.7776	481.29346	-248.49005	2457.1453	212.93332	-286.69562	2417.0615	241.4221	-241.73541	2415.5862	111.78612	-275.5954	2467.3337	416.03934	-196.2428	2462.9849	387.66666	-189.2354	2441.0305	393.87735	-218.32957	2468.5627	51.647991	-236.31004	2271.7559	143.62869	-241.24275	2340.4451	163.8916	-239.16428
311	3.1	2302.8906	151.60797	-229.88341	2304.5464	153.55167	-267.32639	2619.2275	1421.2744	-143.86443	2606.6116	1393.8125	-136.41922	2610.7144	1396.3337	-174.28961	2636.6667	1038.4539	-21.054409	2648.7568	1053.6323	-271.25427	2804.9651	1062.2109	-68.157669	2814.3936	1062.2557	-185.37567	2818.2737	1118.4474	-132.54356	2825.3435	1093.1918	-143.68243	2824.4675	1087.9656	-104.52534	2853.6848	545.91272	0.39987832	2735.0242	585.90308	-49.000824	2683.8733	661.84479	-31.2642	2639.675	796.57269	-11.267356	2799.7571	689.1239	22.016766	2741.9065	823.55322	49.454273	2761.8684	782.44916	54.193138	2773.2012	755.3891	50.650639	2735.4255	753.12012	54.802677	2882.1465	469.90201	7.5535154	2837.3887	437.27808	-48.430416	2976.6404	224.26378	-58.087898	3075.2004	145.73526	-26.783287	2865.7673	388.18121	-76.830795	2873.0811	361.89148	-68.034332	2888.3723	368.86679	-103.25697	3160.8835	136.26357	-58.988075	2955.1443	61.378033	-66.110977	2994.1797	127.75551	-58.837975	2977.6167	103.80199	-49.411869	2972.7952	107.19259	-87.550224	2532.4038	535.47955	-289.80338	2487.593	646.95013	-234.60841	2503.8616	723.89154	-233.52876	2553.5569	840.61975	-239.51991	2591.6833	682.67688	-317.90854	2650.8826	820.08685	-341.13477	2637.1616	767.97949	-347.78381	2616.554	747.58167	-344.14081	2651.3596	731.71704	-337.29553	2520.6406	469.95551	-293.21225	2463.6226	478.75616	-249.66348	2449.4277	209.56964	-285.59821	2407.1707	237.33807	-241.87085	2408.6445	108.47211	-275.51062	2453.4768	413.26666	-196.71022	2449.7244	384.94629	-189.49188	2427.562	390.47342	-218.62062	2464.8989	52.301998	-236.43066	2263.0237	132.3087	-240.0343	2330.5393	156.47498	-238.74063
312	3.11	2294.8606	144.2471	-228.7939	2295.9089	145.79442	-266.03696	2605.3691	1420.5597	-145.34813	2592.6577	1393.2679	-137.94775	2596.7175	1395.8353	-175.82076	2621.2883	1037.6465	-22.458334	2632.626	1052.5784	-273.01999	2789.5667	1060.7369	-70.248184	2798.6055	1060.8455	-187.56392	2802.8486	1117.0027	-134.70073	2809.7542	1091.7172	-145.86119	2809.0278	1086.4468	-106.686	2836.0366	544.11578	-1.1468219	2717.0784	583.97076	-49.924526	2666.489	660.54572	-32.337929	2623.6543	795.72461	-12.640647	2783.061	687.44348	20.110559	2726.0955	822.11481	47.356411	2745.8413	781.13068	52.114582	2757.0039	753.98755	48.645649	2719.2625	751.95013	52.956127	2865.5955	468.9238	6.698101	2822.1575	434.44122	-48.883347	2967.8918	226.12064	-58.11211	3068.6086	150.56221	-26.565304	2851.3945	386.33685	-77.514427	2860.3945	360.41794	-68.215897	2874.8113	367.63971	-103.92666	3154.4629	145.21516	-59.212669	2952.6973	60.734985	-65.90567	2988.0854	128.61842	-58.755642	2972.9075	103.17086	-49.519699	2967.8364	107.16232	-87.336395	2516.5229	534.44366	-290.96436	2470.605	646.25336	-236.52368	2486.8611	723.75146	-234.84204	2537.002	840.0459	-240.88663	2575.8633	681.34064	-318.60126	2634.7666	818.65875	-342.22903	2621.1125	766.46295	-348.9906	2600.7959	745.98969	-345.21124	2635.5615	730.50427	-339.26929	2506.312	468.64313	-294.06302	2449.0508	476.63181	-250.74977	2441.1841	207.25163	-285.38535	2397.5039	233.92047	-242.80316	2401.5652	105.47573	-275.44339	2440.1763	410.90546	-197.25798	2437.1116	382.29816	-189.9182	2414.439	387.20715	-218.79308	2460.7808	53.76487	-237.02879	2255.895	123.01926	-238.02708	2322.063	150.51228	-237.60869
